<svg width="168" height="190" viewBox="0 0 168 190" fill="none" xmlns="http://www.w3.org/2000/svg">
<path d="M149.211 48.7491C159.588 57.8574 157.524 69.1819 144.601 74.0431L97.4289 91.7876C84.5058 96.6489 65.6177 93.206 55.2409 84.0977L20.7699 53.8405C10.3932 44.7322 12.4575 33.4077 25.3805 28.5465L72.5524 10.802C85.4754 5.94078 104.364 9.38367 114.74 18.4919L149.211 48.7491Z" fill="white"/>
<rect width="92.8372" height="86.1325" rx="25" transform="matrix(0.754726 0.65604 0 1 0 42.7693)" fill="white"/>
<rect width="97.1839" height="86.1325" rx="25" transform="matrix(0.936804 -0.349855 0 1 76.6289 103.867)" fill="white"/>
<path d="M149.211 46.7491C159.588 55.8574 157.524 67.1819 144.601 72.0431L97.4289 89.7876C84.5058 94.6489 65.6177 91.206 55.2409 82.0977L20.7699 51.8405C10.3932 42.7322 12.4575 31.4077 25.3805 26.5465L72.5524 8.802C85.4754 3.94078 104.364 7.38367 114.74 16.4919L149.211 46.7491Z" fill="black"/>
<rect width="92.8372" height="86.1325" rx="25" transform="matrix(0.754726 0.65604 0 1 0 40.7693)" fill="black"/>
<rect width="97.1839" height="86.1325" rx="25" transform="matrix(0.936804 -0.349855 0 1 76.6289 101.867)" fill="black"/>
</svg>
