<svg width="907" height="900" viewBox="0 0 907 900" fill="none" xmlns="http://www.w3.org/2000/svg">
<path fill-rule="evenodd" clip-rule="evenodd" d="M649.926 500.125C646.675 635.366 536.024 744 400 744C261.929 744 150 632.071 150 494C150 355.929 261.929 244 400 244C402.047 244 404.088 244.025 406.123 244.074V100.046C624.214 103.319 800 281.131 800 500V500.125H649.926ZM800 500.125H906.123V0.124512H406.123V100.046C404.086 100.015 402.045 100 400 100C179.086 100 0 279.086 0 500C0 720.914 179.086 900 400 900C620.872 900 799.933 720.981 800 500.125ZM400 699C513.218 699 605 607.218 605 494C605 380.782 513.218 289 400 289C286.782 289 195 380.782 195 494C195 607.218 286.782 699 400 699Z" fill="black"/>
</svg>
